<?xml version="1.0" encoding="UTF-8"?>
<svg version="1.1" viewBox="0 0 2048 1637" width="1280" height="1280" xmlns="http://www.w3.org/2000/svg">
<path transform="translate(1197,592)" d="m0 0h13l10 4 8 6 113 113 7 8 65 65 8 10 4 10v17l-4 10-9 11-61 61-7 8-4 4h-2l-2 4-107 107-10 7-9 3-8 1-12-2-9-5-9-9-5-11-1-4v-12l4-11 6-8 9-10 91-91 7-8 3-3h2l2-4 14-14h2l2-4 24-24 4-3-1-4-142-142-4-5-7-6v-2l-3-1-9-12-4-11v-13l4-10 7-9 7-6 9-4z" fill="#373737"/>
<path transform="translate(840,592)" d="m0 0h11l11 4 6 4 7 7 7 14 1 11-4 13-6 9-34 34-8 9h-2l-2 4h-2l-2 4-7 7h-2l-2 4-100 100 6 7 88 88v2l4 2 4 4v2l3 1 5 6 52 52 6 10 2 5v18l-6 12-7 8-12 6-7 1h-9l-9-2-8-5-10-10-8-7-95-95v-2l-4-2-7-7v-2l-4-2-15-16-47-47-7-10-4-11v-11l3-10 8-11 56-56 4-5 7-6 1-2h2l2-4 71-71 7-8 21-21h2v-2l8-7 9-9 12-6z" fill="#373737"/>
<path transform="translate(1062,628)" d="m0 0h9l20 6 21 8 8 5 5 5 5 8 2 12-3 12-10 27-12 35-13 34-13 37-9 24-15 42-9 24-3 4-1 7-9 27-13 36-7 20-10 26-6 10-7 6-9 3h-13l-16-5-21-8-9-5-7-7-4-9-1-4 1-13 15-43 8-24 11-27 8-21 10-30 10-27 15-42 32-89 12-34 7-16 8-9 9-4z" fill="#363636"/>
<path transform="translate(957,873)" d="m0 0 1 3 6 1 32 11 30 11 19 7 2 1v2l-2 2-1 7-9 27-13 36-7 20-10 26-6 10-7 6-9 3h-13l-16-5-21-8-9-5-7-7-4-9-1-4 1-13 15-43 8-24 11-27 8-21z" fill="#B5B5B5"/>
<path transform="translate(1062,628)" d="m0 0h9l20 6 21 8 8 5 5 5 5 8 2 12-3 12-10 27-12 35-4 10-1-3-7-1-50-18-32-11-1-3 15-42 9-25 7-14 8-7z" fill="#373737"/>
<path transform="translate(923,967)" d="m0 0 45 15 24 9 20 7 2 1-1 7-8 21-6 10-7 6-9 3h-13l-16-5-21-8-9-5-7-7-4-9-1-4 1-13z" fill="#363636"/>
<path transform="translate(1027,678)" d="m0 0 4 3 18 6 30 11 39 14-7 23-8 21-1-3-7-1-50-18-32-11-1-3z" fill="#B6B6B6"/>
<path transform="translate(1155,676)" d="m0 0 5 1 128 128 3 6-6-1-131-131z" fill="#717171"/>
<path transform="translate(882,665)" d="m0 0 3 1-2 5-3 1-2 4-40 40h-2l-2 4-3 3h-2l-2 4h-2l-2 4-5 4-5 6-4 4h-2l-2 4h-2l-2 4-3 3h-2l-1 3-6 5-2 3h-2l-2 4h-2l-2 4-5 4-10 10-6 7h-2l-2 4-7 6-3-1 2-4 7-8 7-7 5-4 7-8 107-107z" fill="#5F5F5F"/>
<path transform="translate(748,829)" d="m0 0 6 3 7 8 17 17 8 7 7 8 5 4 5 6 6 5 4 4v2l4 2v2l3 1v2l4 2v2l3 1 4 4v2l4 2v2l4 2 47 47 2 3v3l-5-1-136-136z" fill="#636363"/>
<path transform="translate(1165,665)" d="m0 0 4 2 3 2v2l4 2 110 110v2l4 2 13 13 2 5-3 1-6-5-7-8-58-58-7-6v-2l-3-1-5-6-6-5v-2l-4-2-11-11v-2l-4-2v-2l-4-2-22-22z" fill="#4B4B4B"/>
<path transform="translate(785,820)" d="m0 0 6 4 117 117 2 4-4 1-8-7-113-113-1-5z" fill="#6F6F6F"/>
<path transform="translate(902,689)" d="m0 0 4 1-3 6-118 118-5-1 3-5 13-12 4-5 6-5 2-3h2l2-4z" fill="#6B6B6B"/>
<path transform="translate(762,824)" d="m0 0 5 2 129 129 1 5-5-1-9-9-7-8-9-8-7-8-84-84-8-7-6-7z" fill="#6B6B6B"/>
<path transform="translate(1143,689)" d="m0 0 4 1 33 33 3 2v2l3 1 7 8 74 74 1 4-2 1-6-4-19-19-7-8-34-34-8-7-47-47-2-3z" fill="#6D6D6D"/>
<path transform="translate(890,676)" d="m0 0 4 1-2 4-5 6-8 7-25 25-5 6-9 9h-2v2l-6 5-5 6h-2l-2 4-13 12-49 49-3-1 1-4z" fill="#626262"/>
<path transform="translate(1284,824)" d="m0 0h3l-1 5-131 131-4-1 1-4h2l2-4 8-7z" fill="#5B5B5B"/>
<path transform="translate(1261,821)" d="m0 0h3l-1 5-6 7-8 7-86 86-1 2h-2l-2 4-4 4h-2v2l-5 5-5 4-3-1 2-5z" fill="#555"/>
<path transform="translate(1299,829)" d="m0 0h2l-1 5-136 136-4-1 3-5 15-14z" fill="#4D4D4D"/>
<path transform="translate(955,880)" d="m0 0 4 1 2 3 5 1 4 6 2 2-7 1-4 9-3 10-6 11-6 8-4-2 2-5v-8l3-2 1-3h-5l3-9 8-20z" fill="#F9F9F9"/>
<path transform="translate(1172,671)" d="m0 0 4 2 110 110v2l4 2 13 13-1 2-2-1v-2l-4-2-11-11v-2l-4-2-106-106z" fill="#B5B5B5"/>
<path transform="translate(1030,690)" d="m0 0 4 1 2 1v2l4 2v1h-8v6l-3 5-2 4-5-1-1-2 1-2-2-1 4-4h2l1-8z" fill="#FEFEFE"/>
<path transform="translate(1251,775)" d="m0 0 4 2 5 4 5 5 8 9 8 7 5 6h3l2 3-6-1-34-34z" fill="#B8B8B8"/>
<path transform="translate(892,932)" d="m0 0 4 2 9 8 5 2-1 2-5-1-12-12z" fill="#BABABA"/>
<path transform="translate(828,908)" d="m0 0 3 1v2l4 2v2l4 2 5 6h-3l-13-13z" fill="#B5B5B5"/>
<path transform="translate(902,689)" d="m0 0 4 1-3 6-3 2 1-3-6 2 6-7z" fill="#B1B1B1"/>
<path transform="translate(943,912)" d="m0 0h5l-1 4-7 4 2-7z" fill="#C4C4C4"/>
</svg>
